<svg width="75" height="75" fill="none" xmlns="http://www.w3.org/2000/svg"><path d="m9.516 21.344 9.306-16.195 18.678.038 18.678-.038 9.305 16.194v.001L74.857 37.5l-9.372 16.156-9.306 16.195-18.678-.038-18.678.038-9.305-16.194v-.001L.144 37.5l9.371-16.156Z" fill="#ADB5BD" stroke="#000" stroke-width=".25"/><circle cx="37.5" cy="37.5" r="31.625" fill="#C4C4C4" stroke="#000" stroke-width=".25"/><path d="M28.456 57.32v-.996h2.256V65h-1.104v-7.68h-1.152Zm4.132 3.252c0-1.376.224-2.448.672-3.216.448-.776 1.232-1.164 2.352-1.164 1.112 0 1.892.388 2.34 1.164.448.768.672 1.84.672 3.216 0 1.4-.224 2.488-.672 3.264-.448.776-1.228 1.164-2.34 1.164-1.12 0-1.904-.388-2.352-1.164-.448-.776-.672-1.864-.672-3.264Zm4.956 0c0-.696-.048-1.284-.144-1.764-.088-.488-.276-.88-.564-1.176-.28-.296-.688-.444-1.224-.444-.544 0-.96.148-1.248.444-.28.296-.468.688-.564 1.176-.088.48-.132 1.068-.132 1.764 0 .72.044 1.324.132 1.812.096.488.284.88.564 1.176.288.296.704.444 1.248.444.536 0 .944-.148 1.224-.444.288-.296.476-.688.564-1.176.096-.488.144-1.092.144-1.812Zm3.107 4.5a.718.718 0 0 1-.528-.216.718.718 0 0 1-.216-.528c0-.208.072-.384.216-.528a.718.718 0 0 1 .528-.216c.2 0 .368.072.504.216.144.144.216.32.216.528a.718.718 0 0 1-.216.528.666.666 0 0 1-.504.216Zm3.395-2.4c.08.456.264.808.552 1.056.296.248.692.372 1.188.372.664 0 1.152-.26 1.464-.78.32-.52.472-1.396.456-2.628-.168.36-.448.644-.84.852-.392.2-.828.3-1.308.3a3.127 3.127 0 0 1-1.44-.324 2.447 2.447 0 0 1-.984-.972c-.24-.424-.36-.936-.36-1.536 0-.856.248-1.544.744-2.064.496-.528 1.2-.792 2.112-.792 1.12 0 1.904.364 2.352 1.092.456.728.684 1.812.684 3.252 0 1.008-.092 1.84-.276 2.496-.176.656-.48 1.156-.912 1.5-.424.344-1.008.516-1.752.516-.816 0-1.452-.22-1.908-.66-.456-.44-.716-1-.78-1.68h1.008Zm1.692-1.752c.536 0 .976-.164 1.32-.492.344-.336.516-.788.516-1.356 0-.6-.168-1.084-.504-1.452-.336-.368-.808-.552-1.416-.552-.56 0-1.008.176-1.344.528-.328.352-.492.816-.492 1.392 0 .584.164 1.052.492 1.404.328.352.804.528 1.428.528Z" fill="#000"/></svg>