<svg width="75" height="75" fill="none" xmlns="http://www.w3.org/2000/svg"><path d="m9.516 21.344 9.306-16.195 18.678.038 18.678-.038 9.305 16.194v.001L74.857 37.5l-9.372 16.156-9.306 16.195-18.678-.038-18.678.038-9.305-16.194v-.001L.144 37.5l9.371-16.156Z" fill="#ADB5BD" stroke="#000" stroke-width=".25"/><circle cx="37.5" cy="37.5" r="31.625" fill="#C4C4C4" stroke="#000" stroke-width=".25"/><path d="M32.328 61.488c-.448-.176-.792-.432-1.032-.768s-.36-.744-.36-1.224c0-.432.108-.82.324-1.164.216-.352.536-.628.96-.828.432-.208.952-.312 1.56-.312.608 0 1.124.104 1.548.312.432.2.756.476.972.828.224.344.336.732.336 1.164 0 .464-.124.872-.372 1.224-.248.344-.588.6-1.02.768.496.152.888.42 1.176.804.296.376.444.832.444 1.368 0 .52-.128.976-.384 1.368-.256.384-.62.684-1.092.9-.464.208-1 .312-1.608.312-.608 0-1.144-.104-1.608-.312a2.573 2.573 0 0 1-1.068-.9c-.256-.392-.384-.848-.384-1.368 0-.536.144-.996.432-1.38.288-.384.68-.648 1.176-.792Zm3.252-1.86c0-.488-.16-.864-.48-1.128-.32-.264-.76-.396-1.32-.396-.552 0-.988.132-1.308.396-.32.264-.48.644-.48 1.14 0 .448.164.808.492 1.08.336.272.768.408 1.296.408.536 0 .968-.136 1.296-.408.336-.28.504-.644.504-1.092Zm-1.8 2.34c-.592 0-1.076.14-1.452.42-.376.272-.564.684-.564 1.236 0 .512.18.924.54 1.236.368.312.86.468 1.476.468s1.104-.156 1.464-.468c.36-.312.54-.724.54-1.236 0-.536-.184-.944-.552-1.224-.368-.288-.852-.432-1.452-.432Zm5.062 4.104a.718.718 0 0 1-.528-.216.718.718 0 0 1-.216-.528c0-.208.072-.384.216-.528a.718.718 0 0 1 .528-.216c.2 0 .368.072.504.216.144.144.216.32.216.528a.718.718 0 0 1-.216.528.666.666 0 0 1-.504.216Zm3.576-4.584c-.448-.176-.792-.432-1.032-.768s-.36-.744-.36-1.224c0-.432.108-.82.324-1.164.216-.352.536-.628.96-.828.432-.208.952-.312 1.56-.312.608 0 1.124.104 1.548.312.432.2.756.476.972.828.224.344.336.732.336 1.164 0 .464-.124.872-.372 1.224-.248.344-.588.6-1.02.768.496.152.888.42 1.176.804.296.376.444.832.444 1.368 0 .52-.128.976-.384 1.368-.256.384-.62.684-1.092.9-.464.208-1 .312-1.608.312-.608 0-1.144-.104-1.608-.312a2.573 2.573 0 0 1-1.068-.9c-.256-.392-.384-.848-.384-1.368 0-.536.144-.996.432-1.38.288-.384.68-.648 1.176-.792Zm3.252-1.86c0-.488-.16-.864-.48-1.128-.32-.264-.76-.396-1.32-.396-.552 0-.988.132-1.308.396-.32.264-.48.644-.48 1.14 0 .448.164.808.492 1.08.336.272.768.408 1.296.408.536 0 .968-.136 1.296-.408.336-.28.504-.644.504-1.092Zm-1.8 2.34c-.592 0-1.076.14-1.452.42-.376.272-.564.684-.564 1.236 0 .512.18.924.54 1.236.368.312.86.468 1.476.468s1.104-.156 1.464-.468c.36-.312.54-.724.54-1.236 0-.536-.184-.944-.552-1.224-.368-.288-.852-.432-1.452-.432Z" fill="#000"/></svg>